<?xml version="1.0" standalone="no"?>
<!DOCTYPE svg PUBLIC "-//W3C//DTD SVG 20010904//EN"
 "http://www.w3.org/TR/2001/REC-SVG-20010904/DTD/svg10.dtd">
<svg version="1.0" xmlns="http://www.w3.org/2000/svg"
 width="700.000000pt" height="700.000000pt" viewBox="0 0 700.000000 700.000000"
 preserveAspectRatio="xMidYMid meet">
<metadata>
Created by potrace 1.11, written by Peter Selinger 2001-2013
</metadata>
<g transform="translate(0.000000,700.000000) scale(0.100000,-0.100000)"
fill="#000000" stroke="none">
<path d="M3145 6245 c-92 -30 -214 -67 -730 -225 -475 -145 -629 -192 -815
-250 -241 -75 -586 -182 -710 -220 -69 -21 -170 -53 -225 -70 -55 -17 -120
-37 -145 -44 -25 -8 -112 -35 -195 -61 -82 -26 -181 -56 -220 -68 -113 -33
-106 -14 -104 -289 1 -224 2 -239 21 -252 16 -12 28 -12 71 0 45 11 388 86
451 98 11 2 129 27 260 56 207 45 241 50 253 37 13 -12 15 -304 16 -2105 2
-1701 4 -2093 15 -2104 20 -20 5871 -19 5895 1 15 12 17 115 16 1216 l0 1202
-37 34 c-20 19 -59 52 -87 74 -27 22 -61 50 -75 61 -54 46 -215 178 -430 354
-124 101 -261 213 -305 250 -44 37 -210 174 -370 304 -159 131 -301 248 -315
260 -14 11 -62 50 -105 86 -44 36 -89 73 -100 82 -11 9 -114 93 -230 188 -115
94 -219 178 -230 188 -11 9 -45 36 -75 61 -30 24 -57 47 -60 50 -3 3 -27 24
-55 46 -27 21 -52 42 -55 45 -3 3 -39 32 -80 65 -41 32 -77 62 -80 65 -5 5
-170 140 -490 400 -69 56 -136 112 -150 124 -14 11 -110 91 -215 176 -104 85
-192 157 -195 161 -19 24 -48 25 -115 4z m700 -1379 c176 -105 329 -196 340
-202 18 -10 694 -414 1275 -762 124 -74 237 -142 252 -151 169 -99 877 -527
886 -536 2 -2 3 -80 3 -175 1 -175 -4 -200 -40 -200 -17 0 -130 41 -198 71
-24 10 -45 19 -49 19 -3 0 -33 11 -67 24 -34 13 -201 77 -372 141 -170 64
-319 121 -330 125 -11 5 -193 75 -405 155 -364 138 -540 206 -585 225 -11 5
-139 54 -285 110 -146 55 -274 104 -285 109 -11 5 -78 32 -150 59 -306 116
-375 144 -380 152 -3 5 -5 232 -5 506 0 453 1 499 16 516 12 12 24 16 38 12
12 -4 165 -93 341 -198z m-200 -1307 c77 -23 185 -54 240 -71 55 -16 154 -45
220 -64 66 -19 217 -64 335 -99 118 -35 332 -98 475 -140 143 -42 312 -93 375
-112 63 -19 174 -52 245 -73 72 -21 222 -66 335 -100 570 -171 677 -203 697
-207 12 -3 26 -15 29 -27 8 -22 13 -505 6 -544 -10 -52 -14 -51 -592 89 -47
12 -92 22 -100 24 -8 2 -37 9 -65 15 -27 6 -57 13 -65 15 -8 2 -90 22 -182 44
-92 22 -178 43 -190 45 -13 2 -129 30 -258 61 -129 31 -244 58 -255 61 -11 2
-153 36 -315 75 -162 39 -306 72 -318 75 -13 3 -114 26 -225 53 -111 27 -285
68 -386 92 -157 37 -184 46 -191 65 -5 11 -9 181 -10 377 -1 313 1 357 15 371
9 9 22 16 28 16 7 0 75 -19 152 -41z m-52 -1124 c15 -2 55 -10 90 -15 34 -6
94 -17 132 -25 39 -7 88 -16 110 -20 22 -3 74 -12 115 -20 89 -17 588 -108
745 -136 61 -10 121 -21 135 -24 14 -3 63 -12 110 -20 47 -8 96 -17 110 -20
14 -3 61 -12 105 -20 44 -8 89 -16 100 -18 11 -3 65 -12 120 -22 55 -9 118
-20 140 -25 22 -5 58 -11 80 -15 22 -3 74 -12 115 -20 41 -8 86 -17 100 -19
14 -2 99 -18 190 -35 91 -17 181 -33 200 -36 19 -4 53 -10 75 -15 22 -5 63
-12 90 -15 28 -4 72 -14 99 -24 l49 -16 -1 -219 c-2 -156 -6 -223 -14 -234
-10 -12 -30 -13 -103 -8 -49 4 -101 9 -115 10 -22 3 -129 14 -215 21 -16 1
-59 6 -95 9 -36 4 -83 9 -105 11 -22 3 -62 7 -90 10 -27 2 -77 7 -110 10 -33
3 -76 8 -95 10 -19 2 -64 7 -100 10 -36 3 -81 8 -100 10 -19 3 -64 7 -100 10
-36 3 -78 8 -95 10 -16 2 -61 6 -100 10 -38 3 -83 8 -100 10 -16 2 -64 7 -105
10 -41 3 -86 8 -100 10 -14 2 -59 7 -100 10 -41 3 -86 8 -100 10 -14 2 -57 7
-97 10 -40 4 -85 8 -100 10 -15 2 -68 7 -118 10 -49 4 -92 8 -95 10 -3 2 -45
6 -95 10 -49 4 -97 9 -106 10 -9 2 -52 7 -95 11 -43 3 -90 8 -104 9 -14 2 -54
6 -90 9 -302 30 -295 29 -304 53 -4 9 -7 166 -7 350 0 257 3 338 13 350 12 15
44 15 131 -2z m82 -990 c50 -4 108 -8 130 -10 64 -6 170 -15 238 -20 120 -9
203 -15 257 -20 30 -3 87 -7 125 -10 113 -7 217 -15 260 -20 22 -3 81 -7 130
-10 50 -3 106 -7 125 -10 19 -2 76 -7 125 -11 50 -3 106 -7 125 -9 19 -2 76
-6 125 -10 50 -3 106 -8 125 -10 19 -3 73 -7 120 -10 47 -4 101 -8 120 -10 19
-2 76 -6 125 -10 50 -4 106 -8 125 -10 19 -2 75 -7 123 -10 48 -3 104 -8 125
-10 51 -5 162 -14 252 -20 160 -12 168 -15 171 -60 6 -104 2 -231 -8 -244 -10
-15 -153 -16 -1560 -17 -1377 -1 -1550 1 -1566 14 -16 14 -18 37 -17 261 2
287 1 283 84 276 28 -2 92 -7 141 -10z"/>
</g>
</svg>
