<?xml version="1.0" standalone="no"?>
<!DOCTYPE svg PUBLIC "-//W3C//DTD SVG 20010904//EN"
 "http://www.w3.org/TR/2001/REC-SVG-20010904/DTD/svg10.dtd">
<svg version="1.0" xmlns="http://www.w3.org/2000/svg"
 width="700.000000pt" height="700.000000pt" viewBox="0 0 700.000000 700.000000"
 preserveAspectRatio="xMidYMid meet">
<metadata>
Created by potrace 1.11, written by Peter Selinger 2001-2013
</metadata>
<g transform="translate(0.000000,700.000000) scale(0.100000,-0.100000)"
fill="#000000" stroke="none">
<path d="M2735 5366 c-291 -90 -815 -252 -1164 -359 -349 -108 -638 -202 -642
-209 -5 -7 -9 -88 -9 -180 0 -140 3 -169 16 -183 9 -8 24 -13 33 -11 21 7 568
131 647 147 33 7 68 9 77 6 16 -6 17 -122 17 -1551 0 -1518 0 -1545 19 -1556
21 -11 4277 -15 4318 -4 11 3 23 13 25 22 1 10 1 414 -2 899 l-5 881 -1380
1131 c-829 679 -1388 1131 -1400 1130 -11 0 -258 -73 -550 -163z m1543 -1170
c427 -255 941 -562 1142 -682 l365 -219 3 -123 c3 -122 -5 -162 -32 -162 -12
0 -90 29 -946 357 -223 85 -612 234 -865 330 -253 97 -466 180 -472 186 -10 7
-13 96 -13 383 0 345 1 374 18 383 9 6 18 11 20 11 2 0 353 -209 780 -464z
m-293 -762 c253 -75 665 -197 915 -271 250 -74 547 -162 660 -195 113 -33 211
-65 218 -70 9 -8 12 -63 12 -214 0 -175 -2 -205 -16 -219 -12 -11 -25 -14 -43
-10 -35 9 -829 199 -1610 385 -349 83 -641 155 -648 161 -10 9 -13 70 -13 280
0 232 2 270 16 284 9 8 24 13 33 11 9 -3 223 -67 476 -142z m-380 -724 c1824
-328 2161 -392 2173 -407 15 -21 17 -295 2 -324 -7 -13 -21 -19 -43 -19 -76 0
-2253 223 -2264 232 -18 15 -19 508 -1 526 15 15 4 16 133 -8z m180 -735 c105
-8 393 -31 640 -50 248 -19 504 -39 570 -45 66 -6 266 -22 445 -36 178 -14
330 -30 337 -36 17 -14 18 -189 1 -206 -17 -17 -2289 -17 -2306 0 -17 17 -17
369 1 387 8 8 29 10 67 7 30 -4 141 -13 245 -21z"/>
</g>
</svg>
