<?xml version="1.0" encoding="utf-8"?>
<!-- Generator: Adobe Illustrator 23.0.2, SVG Export Plug-In . SVG Version: 6.00 Build 0)  -->
<svg version="1.1" id="Livello_1" xmlns="http://www.w3.org/2000/svg" xmlns:xlink="http://www.w3.org/1999/xlink" x="0px" y="0px"
	 viewBox="0 0 552.2 306.6" style="enable-background:new 0 0 552.2 306.6;" xml:space="preserve">
<style type="text/css">
	.st0{fill:url(#SVGID_1_);}
	.st1{fill:url(#SVGID_2_);}
	.st2{fill:url(#SVGID_3_);}
	.st3{fill:url(#SVGID_4_);}
	.st4{fill:url(#SVGID_5_);}
	.st5{fill:url(#SVGID_6_);}
	.st6{fill:url(#SVGID_7_);}
	.st7{fill:url(#SVGID_8_);}
	.st8{fill:url(#SVGID_9_);}
	.st9{fill:url(#SVGID_10_);}
	.st10{fill:url(#SVGID_11_);}
	.st11{fill:url(#SVGID_12_);}
	.st12{fill:url(#SVGID_13_);}
	.st13{fill:url(#SVGID_14_);}
	.st14{fill:url(#SVGID_15_);}
	.st15{fill:url(#SVGID_16_);}
	.st16{fill:url(#SVGID_17_);}
	.st17{fill:url(#SVGID_18_);}
</style>
<title>Tavola disegno 1</title>
<linearGradient id="SVGID_1_" gradientUnits="userSpaceOnUse" x1="11.8" y1="170.15" x2="36.7" y2="170.15">
	<stop  offset="0" style="stop-color:#1A8D4C"/>
	<stop  offset="1" style="stop-color:#66BA6B"/>
</linearGradient>
<path class="st0" d="M13.6,229.1h21.3c1,0,1.8-0.8,1.8-1.8l0,0V113c0-1-0.8-1.8-1.8-1.8l0,0H13.6c-1,0-1.8,0.8-1.8,1.8l0,0v114.3
	C11.8,228.3,12.6,229.1,13.6,229.1L13.6,229.1z"/>
<linearGradient id="SVGID_2_" gradientUnits="userSpaceOnUse" x1="42.7" y1="170.2" x2="148" y2="170.2">
	<stop  offset="0" style="stop-color:#1A8D4C"/>
	<stop  offset="1" style="stop-color:#66BA6B"/>
</linearGradient>
<path class="st1" d="M44.5,133.3h32.1c1,0,1.8,0.8,1.8,1.8l0,0v92.2c0,1,0.8,1.8,1.8,1.8l0,0h25.5c1,0,1.8-0.8,1.8-1.8l0,0v-92.1
	c0-1,0.8-1.8,1.8-1.8l0,0h36.9c1,0,1.8-0.8,1.8-1.8l0,0v-18.5c0-1-0.8-1.8-1.8-1.8l0,0H44.5c-1,0-1.8,0.8-1.8,1.8l0,0v18.5
	C42.7,132.6,43.5,133.3,44.5,133.3z"/>
<linearGradient id="SVGID_3_" gradientUnits="userSpaceOnUse" x1="154.8" y1="170.15" x2="180.1" y2="170.15">
	<stop  offset="0" style="stop-color:#1A8D4C"/>
	<stop  offset="1" style="stop-color:#66BA6B"/>
</linearGradient>
<path class="st2" d="M156.6,229.1h21.7c1,0,1.8-0.8,1.8-1.8l0,0V113c0-1-0.8-1.8-1.8-1.8l0,0h-21.7c-1,0-1.8,0.8-1.8,1.8l0,0v114.3
	c0,1,0.7,1.8,1.7,1.8H156.6z"/>
<linearGradient id="SVGID_4_" gradientUnits="userSpaceOnUse" x1="265.7891" y1="121.1017" x2="539.1" y2="121.1017">
	<stop  offset="0" style="stop-color:#1A8D4C"/>
	<stop  offset="1" style="stop-color:#66BA6B"/>
</linearGradient>
<path class="st3" d="M390.8,13.2L267.1,51.4c-0.8,0.2-1.4,1-1.3,1.8v17.1c0,1,0.8,1.8,1.9,1.8c0.1,0,0.2,0,0.3,0l37.5-8.4
	c1-0.2,1.9,0.4,2.2,1.4c0,0.1,0,0.3,0,0.4v161.8c0,1,0.8,1.8,1.8,1.8l0,0h227.8c1,0,1.8-0.8,1.8-1.8l0,0v-92.7
	c0-0.6-0.2-1.1-0.7-1.4l-146-119.6C392,13.1,391.4,13,390.8,13.2z M521.8,222.5H402.3c-1,0-1.8-0.8-1.8-1.8l0,0v-18.1
	c0-1,0.8-1.8,1.8-1.8c0.1,0,0.2,0,0.2,0l119.5,9.5c0.9,0.1,1.7,0.9,1.7,1.8v8.6C523.6,221.7,522.8,222.5,521.8,222.5z M521.6,202.9
	L402.1,191c-0.9-0.1-1.6-0.9-1.7-1.8v-25.4c0-1,0.9-1.8,1.9-1.8c0.1,0,0.2,0,0.3,0l119.5,21.7c0.9,0.2,1.5,0.9,1.5,1.8V201
	c0,1-0.8,1.9-1.8,1.9C521.7,202.9,521.7,202.9,521.6,202.9z M521.4,176.5l-119.5-28.4c-0.8-0.2-1.4-0.9-1.4-1.8v-27.4
	c0-1.1,0.9-1.9,2-1.9c0.1,0,0.3,0,0.4,0.1l119.5,35.5c0.8,0.2,1.4,1,1.3,1.8v20.3c0,1.1-0.9,1.9-2,1.8
	C521.6,176.5,521.5,176.5,521.4,176.5L521.4,176.5z M521.1,146.9l-119.5-45.7c-0.7-0.3-1.1-1-1.2-1.7V61.7c0-1,0.9-1.9,1.9-1.8
	c0.3,0,0.6,0.1,0.9,0.2l119.5,71.4c0.6,0.3,0.9,0.9,0.9,1.6v12.2c-0.1,1-1,1.8-2.1,1.7C521.4,147,521.2,146.9,521.1,146.9z"/>
<linearGradient id="SVGID_5_" gradientUnits="userSpaceOnUse" x1="12.5" y1="264.25" x2="48.4" y2="264.25">
	<stop  offset="0" style="stop-color:#1A8D4C"/>
	<stop  offset="1" style="stop-color:#66BA6B"/>
</linearGradient>
<path class="st4" d="M48.4,292.7H12.5v-56.9h35.9v8.6H22.5v15.4h24.4v8.2H22.5v16.1h25.9V292.7z"/>
<linearGradient id="SVGID_6_" gradientUnits="userSpaceOnUse" x1="64.9" y1="270.3" x2="103.1" y2="270.3">
	<stop  offset="0" style="stop-color:#1A8D4C"/>
	<stop  offset="1" style="stop-color:#66BA6B"/>
</linearGradient>
<path class="st5" d="M64.9,248.6h9.6v7.8h0.6c1.1-3.5,4.4-8.5,13.2-8.5s14.8,5,14.8,15.1v29.7h-9.8v-26.9c0-6.6-3.5-9.4-8.5-9.4
	c-6.5,0-10,4.8-10,11.7v24.6H65L64.9,248.6z"/>
<linearGradient id="SVGID_7_" gradientUnits="userSpaceOnUse" x1="121.5" y1="270.35" x2="146.6" y2="270.35">
	<stop  offset="0" style="stop-color:#1A8D4C"/>
	<stop  offset="1" style="stop-color:#66BA6B"/>
</linearGradient>
<path class="st6" d="M121.6,248.6h9.8v6.9h0.5c1-3,4.2-7.6,11.4-7.6c1.1,0,2.2,0.1,3.3,0.3v8.9c-1.3-0.3-2.7-0.4-4.1-0.3
	c-7.4,0-10.9,4.3-10.9,10.2v25.8h-10.1L121.6,248.6L121.6,248.6z"/>
<linearGradient id="SVGID_8_" gradientUnits="userSpaceOnUse" x1="158.4" y1="273.5" x2="167" y2="273.5">
	<stop  offset="0" style="stop-color:#1A8D4C"/>
	<stop  offset="1" style="stop-color:#66BA6B"/>
</linearGradient>
<path class="st7" d="M158.4,254.3h8.6v38.4h-8.6V254.3z"/>
<linearGradient id="SVGID_9_" gradientUnits="userSpaceOnUse" x1="182.4" y1="270.6" x2="219.8" y2="270.6">
	<stop  offset="0" style="stop-color:#1A8D4C"/>
	<stop  offset="1" style="stop-color:#66BA6B"/>
</linearGradient>
<path class="st8" d="M182.4,267.5c0-11.9,7.3-19.8,19.3-19.8c11.4,0,17.6,7,17.8,15h-9.2c-0.4-2.8-2.4-6.8-8.3-6.8
	c-6.2,0-9.6,4.7-9.6,11.8v5.8c0,7.3,3.6,11.6,9.6,11.6s7.9-2.9,8.5-6.1h9.3c-0.3,8.6-6.7,14.5-18.1,14.5c-11.7,0-19.2-7.4-19.2-20
	v-6H182.4z"/>
<linearGradient id="SVGID_10_" gradientUnits="userSpaceOnUse" x1="233.1" y1="270.6" x2="272.8" y2="270.6">
	<stop  offset="0" style="stop-color:#1A8D4C"/>
	<stop  offset="1" style="stop-color:#66BA6B"/>
</linearGradient>
<path class="st9" d="M272.8,267.9v5.3c0,13-8.1,20.3-19.8,20.3s-19.9-7.2-19.9-20.3v-5.3c0-12.2,8.1-20.2,19.9-20.2
	C264.8,247.7,272.8,255.4,272.8,267.9z M243,268.2v4.8c0,7,3.3,12.4,9.9,12.4c6.6,0,9.8-5.5,9.8-12.4v-4.8c0-7-3.4-12.5-9.8-12.5
	S243,261.2,243,268.2L243,268.2z"/>
<linearGradient id="SVGID_11_" gradientUnits="userSpaceOnUse" x1="315.9" y1="264" x2="351.4" y2="264">
	<stop  offset="0" style="stop-color:#1A8D4C"/>
	<stop  offset="1" style="stop-color:#66BA6B"/>
</linearGradient>
<path class="st10" d="M315.9,292.4v-56.9h35.5v8.7H326v16.6h23.2v8.6H326v23.1h-10.1V292.4z"/>
<linearGradient id="SVGID_12_" gradientUnits="userSpaceOnUse" x1="363" y1="270.1" x2="401.3" y2="270.1">
	<stop  offset="0" style="stop-color:#1A8D4C"/>
	<stop  offset="1" style="stop-color:#66BA6B"/>
</linearGradient>
<path class="st11" d="M363,273v-5.6c0-12.8,8.3-20.1,19.2-20.1c11.2,0,19.1,7.7,19.1,20.1v5.1h-28.5v2.1c0,6,3.7,10.4,10,10.4
	c4.7,0,8-2.2,8.6-5h9.5c-0.5,5.3-5.9,12.9-18.1,12.9S363,285.8,363,273z M391.7,266.2v-0.5c0-6.3-3.8-10.5-9.4-10.5
	s-9.5,4.2-9.5,10.5v0.5H391.7z"/>
<linearGradient id="SVGID_13_" gradientUnits="userSpaceOnUse" x1="417.6" y1="269.95" x2="442.7" y2="269.95">
	<stop  offset="0" style="stop-color:#1A8D4C"/>
	<stop  offset="1" style="stop-color:#66BA6B"/>
</linearGradient>
<path class="st12" d="M417.7,248.2h9.8v6.9h0.5c1-3,4.2-7.6,11.4-7.6c1.1,0,2.2,0.1,3.3,0.3v8.9c-1.3-0.3-2.7-0.4-4.1-0.3
	c-7.4,0-10.9,4.3-10.9,10.2v25.8h-10.1v-44.2H417.7z"/>
<linearGradient id="SVGID_14_" gradientUnits="userSpaceOnUse" x1="454.7" y1="269.9" x2="517.1" y2="269.9">
	<stop  offset="0" style="stop-color:#1A8D4C"/>
	<stop  offset="1" style="stop-color:#66BA6B"/>
</linearGradient>
<path class="st13" d="M454.7,248.2h9.6v7.2h0.5c1-3.2,4-7.9,12-7.9c6.7,0,10.8,3.5,12.2,8.3h0.4c1.6-4.1,5.8-8.3,13.4-8.3
	c9,0,14.3,5.2,14.3,13.9v30.9h-9.8v-27.9c0-5.6-3-8.6-8.1-8.6c-4.8,0-8.5,3.5-8.5,9.3v27.2h-9.6v-27.7c0-5.7-3.4-8.8-8.3-8.8
	s-8.3,3.4-8.3,9.2v27.3h-9.8L454.7,248.2L454.7,248.2z"/>
<linearGradient id="SVGID_15_" gradientUnits="userSpaceOnUse" x1="531.8" y1="273.4" x2="540.4" y2="273.4">
	<stop  offset="0" style="stop-color:#1A8D4C"/>
	<stop  offset="1" style="stop-color:#66BA6B"/>
</linearGradient>
<path class="st14" d="M531.8,254h8.6v38.8h-8.6V254z"/>
<linearGradient id="SVGID_16_" gradientUnits="userSpaceOnUse" x1="190.7" y1="159.85" x2="288.4" y2="159.85">
	<stop  offset="0" style="stop-color:#1A8D4C"/>
	<stop  offset="1" style="stop-color:#66BA6B"/>
</linearGradient>
<path class="st15" d="M278.8,136.9l-63.1,16.3c-1,0.2-2-0.4-2.3-1.4c0-0.1,0-0.1,0-0.2v-21.2c0-0.8,0.6-1.6,1.4-1.8l72.2-18.8
	c0.8-0.2,1.4-1,1.4-1.8V92.8c0-1-0.9-1.9-1.9-1.8c-0.1,0-0.3,0-0.4,0l-89.5,23.2c-3.4,0.9-5.8,4-5.8,7.5V136l0,0v35.1
	c0,4.3,3.4,7.7,7.7,7.8c0.7,0,1.3-0.1,2-0.3l63.1-16.3c1-0.3,2,0.3,2.2,1.3c0,0.2,0.1,0.3,0.1,0.5v25.2c0,0.8-0.6,1.6-1.4,1.8
	L192.1,210c-0.8,0.2-1.4,1-1.4,1.8v15.1c0,1,0.9,1.9,1.9,1.8c0.1,0,0.3,0,0.4,0l89.6-23.2c3.4-0.9,5.8-4,5.8-7.5v-53.6
	c0-4.3-3.4-7.7-7.7-7.7C280.1,136.7,279.4,136.7,278.8,136.9z"/>
<linearGradient id="SVGID_17_" gradientUnits="userSpaceOnUse" x1="159.2" y1="243.65" x2="167.7" y2="243.65">
	<stop  offset="0" style="stop-color:#1A8D4C"/>
	<stop  offset="1" style="stop-color:#66BA6B"/>
</linearGradient>
<rect x="159.2" y="239.4" class="st16" width="8.5" height="8.5"/>
<linearGradient id="SVGID_18_" gradientUnits="userSpaceOnUse" x1="531.8" y1="243.65" x2="540.3" y2="243.65">
	<stop  offset="0" style="stop-color:#1A8D4C"/>
	<stop  offset="1" style="stop-color:#66BA6B"/>
</linearGradient>
<rect x="531.8" y="239.4" class="st17" width="8.5" height="8.5"/>
</svg>
