<svg id="Livello_1" data-name="Livello 1" xmlns="http://www.w3.org/2000/svg" viewBox="0 0 552.2 306.6"><defs><style>.cls-1{fill:#fff;}</style></defs><title>Tavola disegno 1</title><path class="cls-1" d="M13.6,229.1H34.9a1.79,1.79,0,0,0,1.8-1.8V113a1.79,1.79,0,0,0-1.8-1.8H13.6a1.79,1.79,0,0,0-1.8,1.8V227.3A1.79,1.79,0,0,0,13.6,229.1Z"/><path class="cls-1" d="M44.5,133.3H76.6a1.79,1.79,0,0,1,1.8,1.8v92.2a1.79,1.79,0,0,0,1.8,1.8h25.5a1.79,1.79,0,0,0,1.8-1.8V135.2a1.79,1.79,0,0,1,1.8-1.8h36.9a1.79,1.79,0,0,0,1.8-1.8V113.1a1.79,1.79,0,0,0-1.8-1.8H44.5a1.79,1.79,0,0,0-1.8,1.8v18.5A1.77,1.77,0,0,0,44.5,133.3Z"/><path class="cls-1" d="M156.6,229.1h21.7a1.79,1.79,0,0,0,1.8-1.8V113a1.79,1.79,0,0,0-1.8-1.8H156.6a1.79,1.79,0,0,0-1.8,1.8V227.3A1.73,1.73,0,0,0,156.6,229.1Z"/><path class="cls-1" d="M390.8,13.2,267.1,51.4a1.75,1.75,0,0,0-1.3,1.8V70.3a1.85,1.85,0,0,0,2.2,1.8l37.5-8.4a1.8,1.8,0,0,1,2.2,1.8V227.3a1.79,1.79,0,0,0,1.8,1.8H537.3a1.79,1.79,0,0,0,1.8-1.8V134.6a1.51,1.51,0,0,0-.7-1.4L392.4,13.6A1.38,1.38,0,0,0,390.8,13.2Zm131,209.3H402.3a1.79,1.79,0,0,1-1.8-1.8V202.6a1.79,1.79,0,0,1,2-1.8L522,210.3a1.84,1.84,0,0,1,1.7,1.8v8.6A2,2,0,0,1,521.8,222.5Zm-.2-19.6L402.1,191a1.92,1.92,0,0,1-1.7-1.8V163.8a1.86,1.86,0,0,1,2.2-1.8l119.5,21.7a1.82,1.82,0,0,1,1.5,1.8V201A1.86,1.86,0,0,1,521.6,202.9Zm-.2-26.4L401.9,148.1a1.83,1.83,0,0,1-1.4-1.8V118.9a1.92,1.92,0,0,1,2.4-1.8l119.5,35.5a1.75,1.75,0,0,1,1.3,1.8v20.3A1.92,1.92,0,0,1,521.4,176.5Zm-.3-29.6L401.6,101.2a2,2,0,0,1-1.2-1.7V61.7a1.89,1.89,0,0,1,2.8-1.6l119.5,71.4a1.7,1.7,0,0,1,.9,1.6v12.2A1.89,1.89,0,0,1,521.1,146.9Z"/><path class="cls-1" d="M48.4,292.7H12.5V235.8H48.4v8.6H22.5v15.4H46.9V268H22.5v16.1H48.4Z"/><path class="cls-1" d="M64.9,248.6h9.6v7.8h.6c1.1-3.5,4.4-8.5,13.2-8.5s14.8,5,14.8,15.1v29.7H93.3V265.8c0-6.6-3.5-9.4-8.5-9.4-6.5,0-10,4.8-10,11.7v24.6H65l-.1-44.1Z"/><path class="cls-1" d="M121.6,248.6h9.8v6.9h.5c1-3,4.2-7.6,11.4-7.6a15.48,15.48,0,0,1,3.3.3v8.9a15.51,15.51,0,0,0-4.1-.3c-7.4,0-10.9,4.3-10.9,10.2v25.8H121.5V248.6Z"/><path class="cls-1" d="M158.4,254.3H167v38.4h-8.6Z"/><path class="cls-1" d="M182.4,267.5c0-11.9,7.3-19.8,19.3-19.8,11.4,0,17.6,7,17.8,15h-9.2c-.4-2.8-2.4-6.8-8.3-6.8-6.2,0-9.6,4.7-9.6,11.8v5.8c0,7.3,3.6,11.6,9.6,11.6s7.9-2.9,8.5-6.1h9.3c-.3,8.6-6.7,14.5-18.1,14.5-11.7,0-19.2-7.4-19.2-20v-6Z"/><path class="cls-1" d="M272.8,267.9v5.3c0,13-8.1,20.3-19.8,20.3s-19.9-7.2-19.9-20.3v-5.3c0-12.2,8.1-20.2,19.9-20.2S272.8,255.4,272.8,267.9Zm-29.8.3V273c0,7,3.3,12.4,9.9,12.4s9.8-5.5,9.8-12.4v-4.8c0-7-3.4-12.5-9.8-12.5S243,261.2,243,268.2Z"/><path class="cls-1" d="M315.9,292.4V235.5h35.5v8.7H326v16.6h23.2v8.6H326v23.1H315.9Z"/><path class="cls-1" d="M363,273v-5.6c0-12.8,8.3-20.1,19.2-20.1,11.2,0,19.1,7.7,19.1,20.1v5.1H372.8v2.1c0,6,3.7,10.4,10,10.4,4.7,0,8-2.2,8.6-5h9.5c-.5,5.3-5.9,12.9-18.1,12.9S363,285.8,363,273Zm28.7-6.8v-.5c0-6.3-3.8-10.5-9.4-10.5s-9.5,4.2-9.5,10.5v.5Z"/><path class="cls-1" d="M417.7,248.2h9.8v6.9h.5c1-3,4.2-7.6,11.4-7.6a15.48,15.48,0,0,1,3.3.3v8.9a15.51,15.51,0,0,0-4.1-.3c-7.4,0-10.9,4.3-10.9,10.2v25.8H417.6V248.2Z"/><path class="cls-1" d="M454.7,248.2h9.6v7.2h.5c1-3.2,4-7.9,12-7.9,6.7,0,10.8,3.5,12.2,8.3h.4c1.6-4.1,5.8-8.3,13.4-8.3,9,0,14.3,5.2,14.3,13.9v30.9h-9.8V264.4c0-5.6-3-8.6-8.1-8.6-4.8,0-8.5,3.5-8.5,9.3v27.2h-9.6V264.6c0-5.7-3.4-8.8-8.3-8.8s-8.3,3.4-8.3,9.2v27.3h-9.8V248.2Z"/><path class="cls-1" d="M531.8,254h8.6v38.8h-8.6Z"/><path class="cls-1" d="M278.8,136.9l-63.1,16.3a1.88,1.88,0,0,1-2.3-1.6V130.4a1.92,1.92,0,0,1,1.4-1.8L287,109.8a1.92,1.92,0,0,0,1.4-1.8V92.8a1.88,1.88,0,0,0-2.3-1.8l-89.5,23.2a7.8,7.8,0,0,0-5.8,7.5V136h0v35.1a7.73,7.73,0,0,0,9.7,7.5l63.1-16.3a1.84,1.84,0,0,1,2.3,1.8v25.2a1.92,1.92,0,0,1-1.4,1.8L192.1,210a1.92,1.92,0,0,0-1.4,1.8v15.1a1.88,1.88,0,0,0,2.3,1.8l89.6-23.2a7.8,7.8,0,0,0,5.8-7.5V144.4A7.7,7.7,0,0,0,278.8,136.9Z"/><rect class="cls-1" x="159.2" y="239.4" width="8.5" height="8.5"/><rect class="cls-1" x="531.8" y="239.4" width="8.5" height="8.5"/></svg>