<?xml version="1.0" encoding="utf-8"?>
<!-- Generator: Adobe Illustrator 23.0.2, SVG Export Plug-In . SVG Version: 6.00 Build 0)  -->
<svg version="1.1" id="Livello_1" xmlns="http://www.w3.org/2000/svg" xmlns:xlink="http://www.w3.org/1999/xlink" x="0px" y="0px"
	 viewBox="0 0 4000 200" style="enable-background:new 0 0 4000 200;" xml:space="preserve">
<style type="text/css">
	.st0{opacity:0.51;}
	.st1{opacity:0.5;}
	.st2{fill:#383C48;}
	.st3{fill:#9CA0B1;}
	.st4{fill:none;}
</style>
<g class="st0">
	<g>
		<g>
			<g class="st1">
				<path class="st2" d="M363.5,200H6.5c-3.3,0-6-2.7-6-6V6c0-3.3,2.7-6,6-6h357c3.3,0,6,2.7,6,6v188
					C369.5,197.3,366.8,200,363.5,200z"/>
			</g>
			<g class="st1">
				<circle class="st3" cx="42" cy="43.5" r="23.5"/>
				<path class="st3" d="M344.5,80h-321c-3.3,0-6,2.7-6,6v88c0,3.3,2.7,6,6,6h321c3.3,0,6-2.7,6-6V86C350.5,82.7,347.8,80,344.5,80z
					"/>
				<path class="st3" d="M203.5,63h-119c-3.3,0-6-2.7-6-6v-3c0-3.3,2.7-6,6-6h119c3.3,0,6,2.7,6,6v3C209.5,60.3,206.8,63,203.5,63z"
					/>
				<path class="st3" d="M248.5,40h-164c-3.3,0-6-2.7-6-6v-3c0-3.3,2.7-6,6-6h164c3.3,0,6,2.7,6,6v3C254.5,37.3,251.8,40,248.5,40z"
					/>
			</g>
		</g>
		<rect x="0" y="0.2" class="st4" width="400" height="199.5"/>
	</g>
	<g>
		<g>
			<g class="st1">
				<path class="st2" d="M763.5,200h-357c-3.3,0-6-2.7-6-6V6c0-3.3,2.7-6,6-6h357c3.3,0,6,2.7,6,6v188
					C769.5,197.3,766.8,200,763.5,200z"/>
			</g>
			<g class="st1">
				<circle class="st3" cx="442" cy="43.5" r="23.5"/>
				<path class="st3" d="M744.5,80h-321c-3.3,0-6,2.7-6,6v88c0,3.3,2.7,6,6,6h321c3.3,0,6-2.7,6-6V86C750.5,82.7,747.8,80,744.5,80z
					"/>
				<path class="st3" d="M603.5,63h-119c-3.3,0-6-2.7-6-6v-3c0-3.3,2.7-6,6-6h119c3.3,0,6,2.7,6,6v3C609.5,60.3,606.8,63,603.5,63z"
					/>
				<path class="st3" d="M648.5,40h-164c-3.3,0-6-2.7-6-6v-3c0-3.3,2.7-6,6-6h164c3.3,0,6,2.7,6,6v3C654.5,37.3,651.8,40,648.5,40z"
					/>
			</g>
		</g>
		<rect x="400" y="0.2" class="st4" width="400" height="199.5"/>
	</g>
	<g>
		<g>
			<g class="st1">
				<path class="st2" d="M1163.5,200h-357c-3.3,0-6-2.7-6-6V6c0-3.3,2.7-6,6-6h357c3.3,0,6,2.7,6,6v188
					C1169.5,197.3,1166.8,200,1163.5,200z"/>
			</g>
			<g class="st1">
				<circle class="st3" cx="842" cy="43.5" r="23.5"/>
				<path class="st3" d="M1144.5,80h-321c-3.3,0-6,2.7-6,6v88c0,3.3,2.7,6,6,6h321c3.3,0,6-2.7,6-6V86
					C1150.5,82.7,1147.8,80,1144.5,80z"/>
				<path class="st3" d="M1003.5,63h-119c-3.3,0-6-2.7-6-6v-3c0-3.3,2.7-6,6-6h119c3.3,0,6,2.7,6,6v3
					C1009.5,60.3,1006.8,63,1003.5,63z"/>
				<path class="st3" d="M1048.5,40h-164c-3.3,0-6-2.7-6-6v-3c0-3.3,2.7-6,6-6h164c3.3,0,6,2.7,6,6v3
					C1054.5,37.3,1051.8,40,1048.5,40z"/>
			</g>
		</g>
		<rect x="800" y="0.2" class="st4" width="400" height="199.5"/>
	</g>
	<g>
		<g>
			<g class="st1">
				<path class="st2" d="M1563.5,200h-357c-3.3,0-6-2.7-6-6V6c0-3.3,2.7-6,6-6h357c3.3,0,6,2.7,6,6v188
					C1569.5,197.3,1566.8,200,1563.5,200z"/>
			</g>
			<g class="st1">
				<circle class="st3" cx="1242" cy="43.5" r="23.5"/>
				<path class="st3" d="M1544.5,80h-321c-3.3,0-6,2.7-6,6v88c0,3.3,2.7,6,6,6h321c3.3,0,6-2.7,6-6V86
					C1550.5,82.7,1547.8,80,1544.5,80z"/>
				<path class="st3" d="M1403.5,63h-119c-3.3,0-6-2.7-6-6v-3c0-3.3,2.7-6,6-6h119c3.3,0,6,2.7,6,6v3
					C1409.5,60.3,1406.8,63,1403.5,63z"/>
				<path class="st3" d="M1448.5,40h-164c-3.3,0-6-2.7-6-6v-3c0-3.3,2.7-6,6-6h164c3.3,0,6,2.7,6,6v3
					C1454.5,37.3,1451.8,40,1448.5,40z"/>
			</g>
		</g>
		<rect x="1200" y="0.2" class="st4" width="400" height="199.5"/>
	</g>
	<g>
		<g>
			<g class="st1">
				<path class="st2" d="M1963.5,200h-357c-3.3,0-6-2.7-6-6V6c0-3.3,2.7-6,6-6h357c3.3,0,6,2.7,6,6v188
					C1969.5,197.3,1966.8,200,1963.5,200z"/>
			</g>
			<g class="st1">
				<circle class="st3" cx="1642" cy="43.5" r="23.5"/>
				<path class="st3" d="M1944.5,80h-321c-3.3,0-6,2.7-6,6v88c0,3.3,2.7,6,6,6h321c3.3,0,6-2.7,6-6V86
					C1950.5,82.7,1947.8,80,1944.5,80z"/>
				<path class="st3" d="M1803.5,63h-119c-3.3,0-6-2.7-6-6v-3c0-3.3,2.7-6,6-6h119c3.3,0,6,2.7,6,6v3
					C1809.5,60.3,1806.8,63,1803.5,63z"/>
				<path class="st3" d="M1848.5,40h-164c-3.3,0-6-2.7-6-6v-3c0-3.3,2.7-6,6-6h164c3.3,0,6,2.7,6,6v3
					C1854.5,37.3,1851.8,40,1848.5,40z"/>
			</g>
		</g>
		<rect x="1600" y="0.2" class="st4" width="400" height="199.5"/>
	</g>
	<g>
		<g>
			<g class="st1">
				<path class="st2" d="M2363.5,200h-357c-3.3,0-6-2.7-6-6V6c0-3.3,2.7-6,6-6h357c3.3,0,6,2.7,6,6v188
					C2369.5,197.3,2366.8,200,2363.5,200z"/>
			</g>
			<g class="st1">
				<circle class="st3" cx="2042" cy="43.5" r="23.5"/>
				<path class="st3" d="M2344.5,80h-321c-3.3,0-6,2.7-6,6v88c0,3.3,2.7,6,6,6h321c3.3,0,6-2.7,6-6V86
					C2350.5,82.7,2347.8,80,2344.5,80z"/>
				<path class="st3" d="M2203.5,63h-119c-3.3,0-6-2.7-6-6v-3c0-3.3,2.7-6,6-6h119c3.3,0,6,2.7,6,6v3
					C2209.5,60.3,2206.8,63,2203.5,63z"/>
				<path class="st3" d="M2248.5,40h-164c-3.3,0-6-2.7-6-6v-3c0-3.3,2.7-6,6-6h164c3.3,0,6,2.7,6,6v3
					C2254.5,37.3,2251.8,40,2248.5,40z"/>
			</g>
		</g>
		<rect x="2000" y="0.2" class="st4" width="400" height="199.5"/>
	</g>
	<g>
		<g>
			<g class="st1">
				<path class="st2" d="M2763.5,200h-357c-3.3,0-6-2.7-6-6V6c0-3.3,2.7-6,6-6h357c3.3,0,6,2.7,6,6v188
					C2769.5,197.3,2766.8,200,2763.5,200z"/>
			</g>
			<g class="st1">
				<circle class="st3" cx="2442" cy="43.5" r="23.5"/>
				<path class="st3" d="M2744.5,80h-321c-3.3,0-6,2.7-6,6v88c0,3.3,2.7,6,6,6h321c3.3,0,6-2.7,6-6V86
					C2750.5,82.7,2747.8,80,2744.5,80z"/>
				<path class="st3" d="M2603.5,63h-119c-3.3,0-6-2.7-6-6v-3c0-3.3,2.7-6,6-6h119c3.3,0,6,2.7,6,6v3
					C2609.5,60.3,2606.8,63,2603.5,63z"/>
				<path class="st3" d="M2648.5,40h-164c-3.3,0-6-2.7-6-6v-3c0-3.3,2.7-6,6-6h164c3.3,0,6,2.7,6,6v3
					C2654.5,37.3,2651.8,40,2648.5,40z"/>
			</g>
		</g>
		<rect x="2400" y="0.2" class="st4" width="400" height="199.5"/>
	</g>
	<g>
		<g>
			<g class="st1">
				<path class="st2" d="M3163.5,200h-357c-3.3,0-6-2.7-6-6V6c0-3.3,2.7-6,6-6h357c3.3,0,6,2.7,6,6v188
					C3169.5,197.3,3166.8,200,3163.5,200z"/>
			</g>
			<g class="st1">
				<circle class="st3" cx="2842" cy="43.5" r="23.5"/>
				<path class="st3" d="M3144.5,80h-321c-3.3,0-6,2.7-6,6v88c0,3.3,2.7,6,6,6h321c3.3,0,6-2.7,6-6V86
					C3150.5,82.7,3147.8,80,3144.5,80z"/>
				<path class="st3" d="M3003.5,63h-119c-3.3,0-6-2.7-6-6v-3c0-3.3,2.7-6,6-6h119c3.3,0,6,2.7,6,6v3
					C3009.5,60.3,3006.8,63,3003.5,63z"/>
				<path class="st3" d="M3048.5,40h-164c-3.3,0-6-2.7-6-6v-3c0-3.3,2.7-6,6-6h164c3.3,0,6,2.7,6,6v3
					C3054.5,37.3,3051.8,40,3048.5,40z"/>
			</g>
		</g>
		<rect x="2800" y="0.2" class="st4" width="400" height="199.5"/>
	</g>
	<g>
		<g>
			<g class="st1">
				<path class="st2" d="M3563.5,200h-357c-3.3,0-6-2.7-6-6V6c0-3.3,2.7-6,6-6h357c3.3,0,6,2.7,6,6v188
					C3569.5,197.3,3566.8,200,3563.5,200z"/>
			</g>
			<g class="st1">
				<circle class="st3" cx="3242" cy="43.5" r="23.5"/>
				<path class="st3" d="M3544.5,80h-321c-3.3,0-6,2.7-6,6v88c0,3.3,2.7,6,6,6h321c3.3,0,6-2.7,6-6V86
					C3550.5,82.7,3547.8,80,3544.5,80z"/>
				<path class="st3" d="M3403.5,63h-119c-3.3,0-6-2.7-6-6v-3c0-3.3,2.7-6,6-6h119c3.3,0,6,2.7,6,6v3
					C3409.5,60.3,3406.8,63,3403.5,63z"/>
				<path class="st3" d="M3448.5,40h-164c-3.3,0-6-2.7-6-6v-3c0-3.3,2.7-6,6-6h164c3.3,0,6,2.7,6,6v3
					C3454.5,37.3,3451.8,40,3448.5,40z"/>
			</g>
		</g>
		<rect x="3200" y="0.2" class="st4" width="400" height="199.5"/>
	</g>
	<g>
		<g>
			<g class="st1">
				<path class="st2" d="M3963.5,200h-357c-3.3,0-6-2.7-6-6V6c0-3.3,2.7-6,6-6h357c3.3,0,6,2.7,6,6v188
					C3969.5,197.3,3966.8,200,3963.5,200z"/>
			</g>
			<g class="st1">
				<circle class="st3" cx="3642" cy="43.5" r="23.5"/>
				<path class="st3" d="M3944.5,80h-321c-3.3,0-6,2.7-6,6v88c0,3.3,2.7,6,6,6h321c3.3,0,6-2.7,6-6V86
					C3950.5,82.7,3947.8,80,3944.5,80z"/>
				<path class="st3" d="M3803.5,63h-119c-3.3,0-6-2.7-6-6v-3c0-3.3,2.7-6,6-6h119c3.3,0,6,2.7,6,6v3
					C3809.5,60.3,3806.8,63,3803.5,63z"/>
				<path class="st3" d="M3848.5,40h-164c-3.3,0-6-2.7-6-6v-3c0-3.3,2.7-6,6-6h164c3.3,0,6,2.7,6,6v3
					C3854.5,37.3,3851.8,40,3848.5,40z"/>
			</g>
		</g>
		<rect x="3600" y="0.2" class="st4" width="400" height="199.5"/>
	</g>
</g>
</svg>
